{"title":"Harry Price Ghost Hunter (2015) x264 RB58.mp4","uid":13104480,"size":1014307061,"categoryP":"video","categoryS":"tv_shows","magnet":"?xt=urn:btih:c5389f0510a59c6a40def6696dae5a1df6024a72&amp;dn=Harry+Price+Ghost+Hunter+%282015%29+x264+RB58.mp4&amp;tr=udp%3A%2F%2Ftracker.leechers-paradise.org%3A6969&amp;tr=udp%3A%2F%2Fzer0day.ch%3A1337&amp;tr=udp%3A%2F%2Fopen.demonii.com%3A1337&amp;tr=udp%3A%2F%2Ftracker.coppersurfer.tk%3A6969&amp;tr=udp%3A%2F%2Fexodus.desync.com%3A6969","seeders":1,"leechers":0,"uploader":"RedBaron58","files":1,"time":1451270220,"description":"Harry Price - Ghost Hunter (2015) x64 mp4\r\n \nhttp://www.imdb.com/title/tt4974584/\r\n\r\nTrailer:\r\n\r\n\r\nPlease be patient My intial upload speed is limited.\r\nThank you for your kind comments and feedback on my other torrents, your feedback is welcome.\r\n\r\n\r\nAbout the Episode:\r\nFamous ghost hunter and sceptic Harry Price is called upon to investigate the haunting of a \r\nlocal MP's home. Politician Edward Goodwin cannot afford to have his reputation ruined, \r\nand his wife Grace's health and future rest upon the investigation. Harry teams up with \r\nthe family maid Sarah Grey, and together they make a formidable partnership as they \r\ngather more evidence and unravel the mysteries behind the hauntings.\r\n \r\n\r\n\r\nI hope you enjoy.\r\n\r\n\r\nTechnical:\r\n\r\nGeneral\r\nComplete name                            : G:Harry Price Ghost Hunter (2015) x264 RB58.mp4\r\nFormat                                   : MPEG-4\r\nFormat profile                           : Base Media\r\nCodec ID                                 : isom\r\nFile size                                : 967 MiB\r\nDuration                                 : 1h 28mn\r\nOverall bit rate                         : 1 521 Kbps\r\nWriting application                      : Lavf54.63.104\r\n\r\nVideo\r\nID                                       : 1\r\nFormat                                   : AVC\r\nFormat/Info                              : Advanced Video Codec\r\nFormat profile                           :   \r\nFormat settings, CABAC                   : Yes\r\nFormat settings, ReFrames                : 4 frames\r\nCodec ID                                 : avc1\r\nCodec ID/Info                            : Advanced Video Coding\r\nDuration                                 : 1h 28mn\r\nBit rate                                 : 1 400 Kbps\r\nWidth                                    : 832 pixels\r\nHeight                                   : 468 pixels\r\nDisplay aspect ratio                     : 16:9\r\nFrame rate mode                          : Constant\r\nFrame rate                               : 25.000 fps\r\nColor space                              : YUV\r\nChroma subsampling                       : 4:2:0\r\nBit depth                                : 8 bits\r\nScan type                                : Progressive\r\nBits/(Pixel*Frame)                       : 0.144\r\nStream size                              : 891 MiB (92%)\r\nWriting library                          : x264 core 123 r2189 35cf912\r\nEncoding settings                        : cabac=1 / ref=3 / deblock=1:0:0\r\n\r\nAudio\r\nID                                       : 2\r\nFormat                                   : AAC\r\nFormat/Info                              : Advanced Audio Codec\r\nFormat profile                           : LC\r\nCodec ID                                 : 40\r\nDuration                                 : 1h 28mn\r\nBit rate mode                            : Constant\r\nBit rate                                 : 112 Kbps\r\nChannel(s)                               : 2 channels\r\nChannel positions                        : Front: L R\r\nSampling rate                            : 48.0 KHz\r\nCompression mode                         : Lossy\r\nStream size                              : 71.2 MiB (7%)","torrent":{"xt":"urn:btih:c5389f0510a59c6a40def6696dae5a1df6024a72","amp;dn":"Harry+Price+Ghost+Hunter+%282015%29+x264+RB58.mp4","amp;tr":["udp%3A%2F%2Ftracker.leechers-paradise.org%3A6969","udp%3A%2F%2Fzer0day.ch%3A1337","udp%3A%2F%2Fopen.demonii.com%3A1337","udp%3A%2F%2Ftracker.coppersurfer.tk%3A6969","udp%3A%2F%2Fexodus.desync.com%3A6969"],"infoHash":"c5389f0510a59c6a40def6696dae5a1df6024a72","infoHashBuffer":{"type":"Buffer","data":[197,56,159,5,16,165,156,106,64,222,246,105,109,174,90,29,246,2,74,114]},"announce":[],"urlList":[]}}